<svg id="svg" version="1.1" xmlns="http://www.w3.org/2000/svg" xmlns:xlink="http://www.w3.org/1999/xlink" width="400" height="400" viewBox="0, 0, 400,400"><g id="svgg"><path id="path0" d="M111.507 0.800 C 111.204 1.285,110.574 1.600,109.907 1.600 C 109.240 1.600,108.610 1.915,108.307 2.400 C 108.029 2.846,107.374 3.200,106.830 3.200 C 105.702 3.200,95.200 13.523,95.200 14.631 C 95.200 14.985,94.840 15.731,94.400 16.291 C 93.960 16.850,93.600 17.584,93.600 17.922 C 93.600 18.260,93.293 18.876,92.918 19.291 C 92.473 19.782,92.178 20.941,92.072 22.612 C 91.975 24.131,91.682 25.366,91.354 25.638 C 90.937 25.985,90.800 27.318,90.800 31.049 L 90.800 36.000 84.342 36.000 L 77.884 36.000 74.942 38.942 C 72.769 41.115,72.000 42.160,72.000 42.942 C 72.000 43.580,71.779 44.000,71.443 44.000 C 70.723 44.000,70.400 44.878,70.400 46.833 L 70.400 48.400 50.662 48.400 C 31.432 48.400,30.905 48.421,30.200 49.200 C 29.621 49.840,28.968 50.000,26.941 50.000 C 24.840 50.000,24.321 50.137,23.907 50.800 C 23.604 51.285,22.974 51.600,22.307 51.600 C 21.640 51.600,21.010 51.915,20.707 52.400 C 20.406 52.882,19.774 53.200,19.118 53.200 C 18.438 53.200,17.867 53.501,17.600 54.000 C 17.347 54.472,16.762 54.800,16.172 54.800 C 14.906 54.800,9.755 59.836,9.349 61.471 C 9.195 62.092,8.468 63.203,7.734 63.940 C 6.650 65.028,6.400 65.592,6.400 66.944 C 6.400 68.174,6.192 68.738,5.600 69.107 C 4.982 69.493,4.800 70.040,4.800 71.507 C 4.800 72.974,4.618 73.521,4.000 73.907 C 3.203 74.405,3.200 74.840,3.200 192.200 C 3.200 309.560,3.203 309.995,4.000 310.493 C 4.618 310.879,4.800 311.426,4.800 312.893 C 4.800 314.360,4.982 314.907,5.600 315.293 C 6.040 315.568,6.400 316.201,6.400 316.700 C 6.400 317.199,6.760 317.916,7.200 318.293 C 7.640 318.670,8.000 319.377,8.000 319.864 C 8.000 321.132,16.419 329.600,17.679 329.600 C 18.190 329.600,18.832 329.960,19.107 330.400 C 19.410 330.885,20.040 331.200,20.707 331.200 C 21.374 331.200,22.004 331.515,22.307 332.000 C 22.693 332.618,23.240 332.800,24.707 332.800 C 26.174 332.800,26.721 332.982,27.107 333.600 C 27.601 334.390,28.040 334.400,62.375 334.400 C 101.188 334.400,98.400 334.619,98.400 331.571 C 98.400 330.533,98.672 329.728,99.200 329.200 C 99.830 328.570,100.000 327.867,100.000 325.896 C 100.000 323.826,100.138 323.306,100.800 322.893 C 101.400 322.518,101.600 321.960,101.600 320.659 C 101.600 319.432,101.834 318.712,102.400 318.200 C 103.034 317.626,103.200 316.968,103.200 315.027 C 103.200 313.073,103.362 312.439,104.000 311.893 C 105.062 310.984,105.192 304.849,104.171 303.829 C 103.612 303.269,100.504 303.200,75.986 303.200 C 48.838 303.200,48.422 303.188,48.000 302.400 C 47.665 301.773,47.162 301.600,45.682 301.600 C 44.226 301.600,43.678 301.417,43.293 300.800 C 43.018 300.359,42.360 300.000,41.828 300.000 C 40.647 300.000,37.600 297.107,37.600 295.985 C 37.600 295.553,37.240 294.840,36.800 294.400 C 36.178 293.778,36.000 293.067,36.000 291.200 C 36.000 289.333,35.822 288.622,35.200 288.000 C 33.936 286.736,33.936 96.064,35.200 94.800 C 35.822 94.178,36.000 93.467,36.000 91.608 L 36.000 89.216 40.051 85.208 L 44.101 81.200 57.251 81.200 L 70.400 81.200 70.400 89.397 C 70.400 97.160,70.442 97.620,71.200 98.093 C 71.640 98.368,72.000 98.999,72.000 99.496 C 72.000 99.993,72.360 100.760,72.800 101.200 C 73.240 101.640,73.600 102.347,73.600 102.771 C 73.600 103.762,74.638 104.800,75.629 104.800 C 76.053 104.800,76.762 105.162,77.205 105.605 C 78.003 106.403,78.377 106.409,126.705 106.305 L 175.400 106.200 178.300 103.247 C 179.895 101.623,181.200 99.958,181.200 99.547 C 181.200 99.136,181.560 98.440,182.000 98.000 C 182.747 97.253,182.800 96.667,182.800 89.200 L 182.800 81.200 195.304 81.200 C 207.374 81.200,207.825 81.228,208.307 82.000 C 208.582 82.440,209.238 82.800,209.765 82.800 C 211.017 82.800,215.582 87.419,215.592 88.697 C 215.597 89.190,215.960 89.818,216.400 90.093 C 217.191 90.587,217.200 91.029,217.206 130.596 C 217.213 172.840,217.149 171.450,219.100 171.840 C 220.585 172.137,236.000 157.378,236.000 155.660 C 236.000 155.108,238.121 152.720,242.200 148.682 L 248.400 142.544 248.400 107.675 C 248.400 73.240,248.390 72.801,247.600 72.307 C 247.003 71.935,246.800 71.374,246.800 70.104 C 246.800 68.933,246.550 68.150,246.000 67.600 C 245.560 67.160,245.200 66.438,245.200 65.996 C 245.200 65.554,244.840 64.884,244.400 64.507 C 243.960 64.130,243.600 63.442,243.600 62.976 C 243.600 61.759,236.729 54.801,235.521 54.796 C 234.952 54.794,234.066 54.184,233.200 53.200 C 231.958 51.788,231.596 51.607,229.996 51.604 C 228.628 51.601,228.072 51.407,227.693 50.800 C 227.273 50.128,226.760 50.000,224.493 50.000 C 222.226 50.000,221.712 49.872,221.293 49.200 C 220.805 48.418,220.360 48.400,201.797 48.400 L 182.800 48.400 182.800 46.833 C 182.800 44.878,182.477 44.000,181.757 44.000 C 181.421 44.000,181.200 43.580,181.200 42.942 C 181.200 42.160,180.431 41.115,178.258 38.942 L 175.316 36.000 168.858 36.000 L 162.400 36.000 162.400 32.033 C 162.400 27.733,162.214 26.800,161.357 26.800 C 160.934 26.800,160.800 26.127,160.800 24.003 C 160.800 21.640,160.676 21.129,160.000 20.707 C 159.393 20.328,159.199 19.771,159.196 18.404 C 159.192 16.872,158.981 16.396,157.796 15.244 C 157.028 14.498,156.400 13.563,156.400 13.165 C 156.400 12.011,147.523 3.200,146.360 3.200 C 145.826 3.200,145.169 2.842,144.893 2.400 C 144.590 1.915,143.960 1.600,143.293 1.600 C 142.626 1.600,141.996 1.285,141.693 0.800 C 140.911 -0.451,112.289 -0.451,111.507 0.800 M129.291 23.489 C 131.547 23.743,136.000 27.674,136.000 29.411 C 136.000 29.960,136.353 30.614,136.800 30.893 C 137.450 31.298,137.600 31.826,137.600 33.696 L 137.600 36.000 126.600 36.000 L 115.600 36.000 115.600 33.800 C 115.600 32.133,115.794 31.406,116.400 30.800 C 116.840 30.360,117.200 29.640,117.200 29.200 C 117.200 27.586,121.652 23.743,123.802 23.501 C 125.010 23.365,125.860 23.036,126.096 22.614 C 126.446 21.988,126.503 21.988,126.960 22.613 C 127.242 22.998,128.229 23.369,129.291 23.489 M331.600 72.800 C 331.270 73.417,330.762 73.600,329.382 73.600 C 328.087 73.600,327.403 73.821,326.907 74.400 C 326.530 74.840,325.814 75.200,325.314 75.200 C 324.815 75.200,324.182 75.560,323.907 76.000 C 323.632 76.440,323.291 76.800,323.148 76.800 C 322.476 76.800,311.164 88.607,310.933 89.549 C 310.791 90.127,310.073 91.225,309.338 91.988 C 308.602 92.752,308.000 93.517,308.000 93.688 C 308.000 93.860,307.838 94.000,307.639 94.000 C 306.154 94.000,296.800 104.591,296.800 106.273 C 296.800 108.226,308.200 120.400,310.028 120.400 C 310.497 120.400,313.517 123.146,317.727 127.400 C 322.397 132.119,324.933 134.400,325.508 134.400 C 326.083 134.400,328.637 136.689,333.316 141.400 C 337.827 145.942,340.558 148.400,341.091 148.400 C 341.620 148.400,344.120 150.614,348.092 154.600 C 352.196 158.718,354.556 160.800,355.121 160.800 C 355.671 160.800,357.352 162.213,359.879 164.800 L 363.787 168.800 366.447 168.800 C 369.269 168.800,372.000 166.867,372.000 164.869 C 372.000 164.288,379.661 156.000,380.198 156.000 C 380.754 156.000,386.000 150.135,386.000 149.513 C 386.000 148.695,386.949 147.563,391.100 143.430 C 392.924 141.614,393.600 140.651,393.600 139.871 C 393.600 139.222,393.820 138.800,394.157 138.800 C 394.752 138.800,395.200 137.965,395.200 136.856 C 395.200 136.483,395.560 135.870,396.000 135.493 C 396.734 134.864,396.800 134.313,396.800 128.807 C 396.800 123.240,396.742 122.771,396.000 122.307 C 395.515 122.004,395.200 121.374,395.200 120.707 C 395.200 120.040,394.885 119.410,394.400 119.107 C 393.960 118.832,393.600 118.199,393.600 117.700 C 393.600 116.545,383.592 106.400,382.453 106.400 C 381.992 106.400,378.910 103.630,374.742 99.468 C 370.717 95.450,367.364 92.428,366.765 92.277 C 366.164 92.126,362.791 89.080,358.716 85.009 C 354.340 80.637,351.403 78.000,350.907 78.000 C 350.470 78.000,349.502 77.372,348.756 76.604 C 347.923 75.746,347.013 75.207,346.396 75.204 C 345.829 75.202,345.175 74.852,344.893 74.400 C 344.507 73.782,343.960 73.600,342.493 73.600 C 341.026 73.600,340.479 73.418,340.093 72.800 C 339.650 72.092,339.160 72.000,335.811 72.000 C 332.438 72.000,331.982 72.087,331.600 72.800 M343.343 103.000 C 347.057 106.710,349.860 109.200,350.321 109.200 C 350.782 109.200,353.677 111.771,357.526 115.600 C 361.220 119.275,364.277 122.000,364.705 122.000 C 365.496 122.000,372.000 128.138,372.000 128.885 C 372.000 129.127,371.280 130.031,370.400 130.893 C 369.520 131.756,368.800 132.801,368.800 133.215 C 368.800 133.994,365.575 137.600,364.879 137.600 C 364.663 137.600,363.040 136.160,361.273 134.400 C 359.325 132.460,357.733 131.200,357.230 131.200 C 356.685 131.200,354.017 128.792,349.473 124.200 C 344.871 119.550,342.263 117.200,341.705 117.200 C 341.152 117.200,338.737 115.062,334.644 110.949 L 328.424 104.698 332.312 100.762 C 334.450 98.597,336.411 96.820,336.668 96.813 C 336.925 96.806,339.929 99.590,343.343 103.000 M262.300 143.646 C 259.043 146.962,256.400 149.981,256.400 150.384 C 256.400 150.797,253.383 154.137,249.468 158.058 C 245.541 161.992,242.426 165.441,242.282 166.016 C 242.138 166.588,238.965 170.118,235.014 174.101 C 230.870 178.279,228.000 181.483,228.000 181.932 C 228.000 182.379,225.450 185.242,221.800 188.892 C 218.115 192.577,215.600 195.403,215.600 195.858 C 215.600 196.316,212.779 199.464,208.600 203.670 C 204.750 207.545,201.600 211.023,201.600 211.398 C 201.600 212.042,198.536 215.357,190.900 222.975 C 189.085 224.786,187.600 226.592,187.600 226.988 C 187.600 227.385,185.485 229.832,182.900 232.427 C 175.773 239.579,175.200 240.227,175.200 241.128 C 175.200 241.809,173.541 244.000,173.026 244.000 C 172.435 244.000,161.139 255.913,160.937 256.749 C 160.784 257.384,157.938 260.533,153.742 264.711 C 149.359 269.075,146.800 271.918,146.800 272.424 C 146.800 272.929,144.207 275.824,139.800 280.239 C 135.500 284.548,132.800 287.555,132.800 288.037 C 132.800 288.496,131.225 290.383,129.000 292.590 C 123.866 297.682,123.861 297.575,129.500 303.193 C 131.866 305.551,134.268 307.592,134.840 307.731 C 135.457 307.882,138.724 310.834,142.874 314.993 C 147.423 319.549,150.158 322.000,150.695 322.000 C 151.234 322.000,153.934 324.433,158.460 328.997 C 162.841 333.414,165.696 335.996,166.203 335.997 C 166.644 335.999,167.584 336.630,168.290 337.400 C 168.997 338.170,169.657 338.800,169.756 338.800 C 169.856 338.800,172.082 340.960,174.702 343.600 C 177.323 346.240,179.795 348.400,180.195 348.400 C 180.595 348.400,182.619 350.110,184.692 352.200 C 186.765 354.290,188.534 356.000,188.623 356.000 C 188.712 356.000,189.823 357.079,191.093 358.398 C 194.588 362.031,194.416 362.097,202.456 354.059 C 206.831 349.687,209.200 347.029,209.200 346.492 C 209.200 345.952,211.628 343.268,216.219 338.733 C 220.784 334.224,223.317 331.426,223.463 330.730 C 223.679 329.701,229.664 323.200,230.396 323.200 C 230.588 323.200,230.860 322.840,231.000 322.400 C 231.140 321.960,231.420 321.600,231.622 321.600 C 232.286 321.600,235.992 317.419,235.996 316.666 C 235.998 316.262,236.585 315.303,237.300 314.534 C 239.448 312.226,245.659 306.000,245.812 306.000 C 246.361 306.000,250.000 301.731,250.000 301.087 C 250.000 300.642,251.027 299.252,252.300 297.975 C 253.565 296.705,255.728 294.482,257.106 293.033 C 258.485 291.585,259.778 290.400,259.979 290.400 C 260.181 290.400,260.460 290.040,260.600 289.600 C 260.740 289.160,261.020 288.800,261.223 288.800 C 261.893 288.800,264.000 286.298,264.000 285.503 C 264.000 285.037,266.172 282.545,269.400 279.305 C 272.370 276.325,274.800 273.732,274.800 273.543 C 274.800 273.354,275.051 273.200,275.357 273.200 C 275.939 273.200,276.400 272.369,276.400 271.320 C 276.400 270.983,279.544 267.586,283.387 263.773 C 287.867 259.328,290.474 256.438,290.652 255.720 C 290.830 255.003,293.424 252.123,297.865 247.714 C 302.338 243.272,304.800 240.538,304.800 240.010 C 304.800 239.483,307.287 236.718,311.800 232.228 C 316.414 227.638,318.800 224.979,318.800 224.427 C 318.800 223.878,320.929 221.489,325.000 217.469 C 329.009 213.511,331.200 211.057,331.200 210.524 C 331.200 210.018,332.738 208.147,335.200 205.659 L 339.200 201.617 339.200 199.208 C 339.200 196.615,337.079 193.600,335.254 193.600 C 334.825 193.600,331.876 190.968,328.308 187.400 C 324.539 183.631,321.801 181.200,321.326 181.200 C 320.849 181.200,317.815 178.481,313.519 174.200 C 308.597 169.297,306.209 167.187,305.546 167.158 C 304.904 167.129,303.764 166.179,302.000 164.200 C 300.570 162.596,299.277 161.265,299.128 161.242 C 298.978 161.219,297.074 159.400,294.897 157.200 C 292.561 154.840,290.617 153.200,290.155 153.200 C 289.682 153.200,287.581 151.372,284.869 148.600 C 282.393 146.070,280.279 144.000,280.171 144.000 C 280.063 144.000,279.313 143.280,278.504 142.400 C 277.598 141.415,276.676 140.800,276.104 140.800 C 275.532 140.800,274.610 140.185,273.704 139.200 C 272.353 137.731,272.068 137.602,270.216 137.620 L 268.200 137.640 262.300 143.646 M275.383 173.431 C 276.006 173.588,277.525 174.722,278.758 175.951 L 281.000 178.186 276.247 182.893 L 271.495 187.600 269.512 187.600 C 266.611 187.600,264.000 184.955,264.000 182.016 C 264.000 179.686,269.036 173.963,271.578 173.405 C 272.280 173.251,272.961 172.846,273.091 172.506 C 273.304 171.951,273.376 171.952,273.789 172.517 C 274.042 172.864,274.759 173.275,275.383 173.431 M59.302 176.662 C 59.028 176.774,57.183 178.494,55.202 180.485 L 51.600 184.104 51.600 191.456 C 51.600 198.313,51.654 198.854,52.400 199.493 C 52.840 199.870,53.200 200.570,53.200 201.049 C 53.200 202.241,55.828 204.800,57.053 204.800 C 57.587 204.800,58.124 205.059,58.246 205.376 C 58.367 205.692,59.034 206.076,59.728 206.228 C 60.421 206.380,61.202 206.796,61.462 207.152 C 61.940 207.806,184.749 208.434,188.278 207.801 C 189.797 207.529,195.200 202.339,195.200 201.153 C 195.200 200.733,196.967 198.633,199.200 196.400 C 203.637 191.963,204.389 189.989,202.400 188.000 C 201.876 187.476,201.600 186.667,201.600 185.652 C 201.600 184.236,201.283 183.782,197.900 180.352 L 194.200 176.600 127.000 176.530 C 90.040 176.491,59.576 176.551,59.302 176.662 M249.117 205.614 C 251.660 208.087,252.728 211.200,251.033 211.200 C 250.722 211.200,250.407 211.367,250.333 211.572 C 250.260 211.777,248.715 213.477,246.900 215.350 C 245.085 217.224,243.600 219.093,243.600 219.503 C 243.600 220.238,237.489 226.800,236.804 226.800 C 236.612 226.800,236.340 227.160,236.200 227.600 C 236.060 228.040,235.784 228.400,235.586 228.400 C 234.910 228.400,229.600 234.195,229.600 234.933 C 229.600 235.338,229.015 236.297,228.300 237.065 C 226.082 239.448,221.547 244.000,221.392 244.000 C 220.837 244.000,217.200 248.268,217.200 248.919 C 217.200 249.396,215.971 250.942,214.200 252.690 C 212.550 254.318,211.200 255.807,211.200 255.999 C 211.200 256.190,210.840 256.460,210.400 256.600 C 209.960 256.740,209.600 257.014,209.600 257.209 C 209.600 257.670,207.670 259.600,207.209 259.600 C 207.014 259.600,206.740 259.960,206.600 260.400 C 206.460 260.840,206.180 261.200,205.977 261.200 C 205.314 261.200,203.200 263.699,203.200 264.483 C 203.200 264.929,200.958 267.497,197.800 270.666 C 194.830 273.646,192.400 276.245,192.400 276.442 C 192.400 276.639,192.222 276.800,192.003 276.800 C 191.309 276.800,189.200 279.288,189.200 280.107 C 189.200 280.593,186.836 283.230,183.020 287.000 C 179.170 290.802,176.735 293.521,176.562 294.208 C 175.950 296.647,171.909 300.000,169.582 300.000 C 164.634 300.000,162.072 294.148,165.600 290.904 C 166.480 290.095,167.200 289.061,167.200 288.607 C 167.200 288.077,169.421 285.544,173.400 281.534 C 178.217 276.679,179.600 275.053,179.600 274.243 C 179.600 273.604,179.822 273.200,180.173 273.200 C 180.488 273.200,180.860 272.840,181.000 272.400 C 181.140 271.960,181.412 271.600,181.606 271.600 C 181.800 271.600,183.452 270.047,185.279 268.150 C 187.106 266.252,189.725 263.584,191.100 262.220 C 192.609 260.724,193.600 259.403,193.600 258.889 C 193.600 258.183,195.256 256.000,195.792 256.000 C 195.878 256.000,198.165 253.730,200.874 250.955 C 203.583 248.180,206.196 245.545,206.680 245.100 C 207.164 244.654,207.668 243.820,207.800 243.245 C 208.071 242.063,209.320 240.400,209.937 240.400 C 210.162 240.400,210.460 240.040,210.600 239.600 C 210.740 239.160,211.004 238.800,211.188 238.800 C 211.954 238.800,222.000 228.265,222.013 227.449 C 222.020 226.982,222.650 225.979,223.413 225.219 C 224.176 224.460,224.800 223.695,224.800 223.519 C 224.800 223.344,224.963 223.200,225.163 223.200 C 225.860 223.200,234.400 214.290,234.400 213.563 C 234.400 213.159,236.515 210.668,239.100 208.026 C 244.981 202.017,245.331 201.932,249.117 205.614 " stroke="none" fill="#0404fc" fill-rule="evenodd"></path><path id="path1" d="M287.492 115.368 C 284.571 118.252,282.800 120.306,282.800 120.810 C 282.800 121.303,281.309 123.099,279.000 125.390 L 275.200 129.159 275.200 132.014 L 275.200 134.869 277.418 137.035 C 278.638 138.226,279.963 139.200,280.364 139.200 C 280.770 139.200,283.833 141.941,287.292 145.400 C 291.176 149.284,293.792 151.600,294.295 151.600 C 294.803 151.600,297.676 154.179,302.093 158.600 C 306.367 162.877,309.390 165.600,309.867 165.600 C 310.341 165.600,313.388 168.333,317.670 172.600 C 322.010 176.925,324.996 179.600,325.483 179.600 C 326.171 179.600,328.986 182.219,333.978 187.500 C 334.654 188.215,335.292 188.800,335.396 188.800 C 335.500 188.800,336.623 189.879,337.893 191.198 L 340.200 193.596 342.959 193.598 L 345.718 193.600 351.644 187.700 C 355.328 184.032,357.661 181.395,357.810 180.730 C 357.942 180.142,359.025 178.702,360.216 177.530 C 363.360 174.438,363.368 172.370,360.246 169.300 C 359.072 168.145,357.752 167.200,357.313 167.200 C 356.817 167.200,354.173 164.856,350.321 161.000 C 346.274 156.951,343.835 154.800,343.289 154.800 C 342.539 154.800,332.853 145.471,332.467 144.378 C 332.393 144.170,332.163 144.000,331.954 144.000 C 331.746 144.000,330.913 143.280,330.104 142.400 C 329.237 141.457,328.269 140.800,327.747 140.800 C 326.866 140.800,325.583 139.609,318.090 131.835 C 316.269 129.946,314.616 128.400,314.417 128.400 C 314.217 128.400,313.942 128.046,313.804 127.614 C 313.647 127.117,313.051 126.733,312.184 126.571 C 311.171 126.381,310.003 125.486,307.707 123.142 C 298.177 113.414,297.089 112.400,296.174 112.400 C 295.660 112.400,295.091 112.133,294.908 111.808 C 293.813 109.850,292.392 110.532,287.492 115.368 M61.507 132.000 C 61.204 132.485,60.574 132.800,59.907 132.800 C 59.240 132.800,58.610 133.115,58.307 133.600 C 58.025 134.052,57.371 134.402,56.804 134.404 C 55.515 134.410,53.200 136.750,53.200 138.046 C 53.200 138.575,52.840 139.232,52.400 139.507 C 51.172 140.274,51.191 156.000,52.420 156.000 C 52.604 156.000,54.172 157.440,55.904 159.200 L 59.053 162.400 126.583 162.400 L 194.113 162.400 197.856 158.656 C 201.329 155.184,201.600 154.797,201.600 153.318 C 201.600 152.232,201.855 151.493,202.400 151.000 C 203.555 149.955,203.555 145.555,202.400 144.400 C 201.867 143.867,201.600 143.067,201.600 142.000 C 201.600 140.933,201.333 140.133,200.800 139.600 C 200.360 139.160,200.000 138.453,200.000 138.028 C 200.000 136.841,197.488 134.400,196.267 134.400 C 195.638 134.400,195.059 134.085,194.800 133.600 C 194.550 133.132,193.962 132.800,193.386 132.800 C 192.844 132.800,192.040 132.440,191.600 132.000 C 190.337 130.737,62.296 130.737,61.507 132.000 M59.907 221.200 C 59.627 221.649,58.967 222.004,58.404 222.009 C 56.990 222.022,53.200 225.908,53.200 227.345 C 53.200 227.980,52.978 228.400,52.643 228.400 C 51.232 228.400,51.003 242.420,52.400 243.293 C 52.849 243.573,53.204 244.233,53.209 244.796 C 53.221 246.142,57.106 250.000,58.448 250.000 C 58.976 250.000,59.632 250.360,59.907 250.800 C 60.402 251.592,60.840 251.600,105.343 251.600 L 150.278 251.600 152.539 249.339 C 153.879 247.999,154.800 246.729,154.800 246.222 C 154.800 245.385,159.242 240.400,159.987 240.400 C 160.185 240.400,160.460 240.040,160.600 239.600 C 160.740 239.160,161.006 238.800,161.192 238.800 C 161.877 238.800,168.800 231.471,168.800 230.747 C 168.800 230.334,170.150 228.607,171.800 226.908 C 174.885 223.732,175.559 222.119,174.320 220.880 C 173.342 219.902,60.520 220.218,59.907 221.200 M117.680 305.280 C 117.416 305.544,117.200 306.581,117.200 307.584 C 117.200 308.974,117.010 309.526,116.400 309.907 C 115.800 310.282,115.600 310.840,115.600 312.141 C 115.600 313.368,115.366 314.088,114.800 314.600 C 114.166 315.174,114.000 315.832,114.000 317.773 C 114.000 319.727,113.838 320.361,113.200 320.907 C 112.647 321.381,112.400 322.087,112.400 323.196 C 112.400 324.267,112.134 325.066,111.600 325.600 C 110.988 326.212,110.800 326.933,110.800 328.669 C 110.800 330.197,110.589 331.170,110.153 331.652 C 109.797 332.046,109.414 333.182,109.301 334.177 C 109.189 335.173,108.850 336.192,108.549 336.443 C 108.185 336.745,108.000 337.791,108.000 339.553 C 108.000 341.774,107.869 342.289,107.200 342.707 C 106.603 343.080,106.400 343.640,106.400 344.914 C 106.400 346.127,106.168 346.821,105.600 347.307 C 104.958 347.857,104.800 348.487,104.800 350.500 C 104.800 352.574,104.662 353.094,104.000 353.507 C 103.382 353.893,103.200 354.440,103.200 355.907 C 103.200 357.374,103.018 357.921,102.400 358.307 C 101.803 358.680,101.600 359.240,101.600 360.514 C 101.600 361.727,101.368 362.421,100.800 362.907 C 100.165 363.451,100.000 364.087,100.000 365.996 C 100.000 367.867,99.823 368.577,99.200 369.200 C 98.667 369.733,98.400 370.533,98.400 371.600 C 98.400 372.667,98.133 373.467,97.600 374.000 C 96.991 374.609,96.800 375.333,96.800 377.037 C 96.800 378.668,96.583 379.549,96.000 380.291 C 95.550 380.862,95.200 381.914,95.200 382.691 C 95.200 383.468,94.850 384.519,94.400 385.091 C 93.708 385.971,93.600 386.714,93.600 390.600 C 93.600 394.486,93.708 395.229,94.400 396.109 C 94.840 396.669,95.200 397.475,95.200 397.901 C 95.200 399.830,96.038 400.000,105.535 400.000 C 113.913 400.000,114.446 399.955,115.093 399.200 C 115.580 398.631,116.273 398.400,117.493 398.400 C 118.713 398.400,119.406 398.169,119.893 397.600 C 120.270 397.160,120.960 396.800,121.427 396.800 C 121.894 396.800,122.602 396.440,123.000 396.000 C 123.512 395.434,124.232 395.200,125.459 395.200 C 126.760 395.200,127.318 395.000,127.693 394.400 C 127.996 393.915,128.626 393.600,129.293 393.600 C 129.960 393.600,130.590 393.285,130.893 392.800 C 131.279 392.181,131.826 392.000,133.309 392.000 C 134.583 392.000,135.297 391.812,135.440 391.439 C 135.559 391.131,136.282 390.761,137.049 390.617 C 137.815 390.473,138.542 390.096,138.664 389.778 C 138.786 389.460,139.318 389.200,139.847 389.200 C 140.375 389.200,141.116 388.840,141.493 388.400 C 141.980 387.831,142.673 387.600,143.893 387.600 C 145.113 387.600,145.806 387.369,146.293 386.800 C 146.670 386.360,147.390 386.000,147.893 386.000 C 148.396 386.000,149.116 385.640,149.493 385.200 C 149.979 384.632,150.673 384.400,151.886 384.400 C 153.160 384.400,153.720 384.197,154.093 383.600 C 154.396 383.115,155.026 382.800,155.693 382.800 C 156.360 382.800,156.990 382.485,157.293 382.000 C 157.679 381.382,158.226 381.200,159.693 381.200 C 161.160 381.200,161.707 381.018,162.093 380.400 C 162.396 379.915,163.026 379.600,163.693 379.600 C 164.360 379.600,164.990 379.285,165.293 378.800 C 165.594 378.318,166.226 378.000,166.882 378.000 C 167.562 378.000,168.133 377.699,168.400 377.200 C 168.730 376.583,169.238 376.400,170.618 376.400 C 171.913 376.400,172.597 376.179,173.093 375.600 C 173.470 375.160,174.166 374.800,174.640 374.800 C 175.114 374.800,175.707 374.553,175.958 374.250 C 176.209 373.948,177.336 373.612,178.461 373.504 C 179.784 373.377,180.638 373.076,180.874 372.654 C 181.075 372.294,181.567 372.000,181.966 372.000 C 182.365 372.000,183.150 371.640,183.709 371.200 C 184.297 370.737,185.332 370.400,186.163 370.400 C 188.135 370.400,189.200 369.267,189.200 367.169 C 189.200 365.304,177.865 353.200,176.118 353.200 C 175.601 353.200,172.795 350.673,168.354 346.208 C 163.620 341.448,161.121 339.213,160.526 339.208 C 159.742 339.201,150.066 329.907,149.667 328.778 C 149.593 328.570,149.377 328.400,149.185 328.400 C 148.993 328.400,148.386 327.950,147.836 327.400 C 147.286 326.850,146.498 326.400,146.085 326.400 C 145.371 326.400,143.032 324.196,135.071 316.023 C 132.514 313.398,131.271 312.400,130.558 312.400 C 130.017 312.400,129.471 312.130,129.345 311.800 C 129.218 311.470,128.876 311.200,128.584 311.200 C 128.293 311.200,127.940 310.840,127.800 310.400 C 127.660 309.960,127.382 309.600,127.181 309.600 C 126.979 309.600,125.777 308.521,124.507 307.202 C 122.096 304.696,119.106 303.854,117.680 305.280 M135.159 340.100 C 139.189 344.093,142.231 346.800,142.689 346.800 C 143.141 346.800,145.315 348.695,147.966 351.400 C 150.445 353.930,152.544 356.000,152.629 356.000 C 152.715 356.000,153.823 357.079,155.093 358.398 C 156.707 360.075,157.702 360.797,158.404 360.798 C 158.973 360.799,159.624 361.146,159.907 361.600 C 160.371 362.343,160.307 362.400,158.999 362.400 C 158.087 362.400,157.351 362.681,156.907 363.200 C 156.530 363.640,155.810 364.000,155.307 364.000 C 154.804 364.000,154.084 364.360,153.707 364.800 C 153.330 365.240,152.610 365.600,152.107 365.600 C 151.604 365.600,150.884 365.960,150.507 366.400 C 150.028 366.960,149.327 367.200,148.173 367.200 C 147.032 367.200,146.301 367.446,145.800 368.000 C 145.402 368.440,144.655 368.800,144.141 368.800 C 143.627 368.800,142.982 369.160,142.707 369.600 C 142.321 370.218,141.774 370.400,140.307 370.400 C 138.840 370.400,138.293 370.582,137.907 371.200 C 136.647 373.218,135.191 372.419,129.158 366.400 C 125.821 363.071,123.231 360.800,122.772 360.800 C 121.535 360.800,120.400 359.365,120.400 357.800 C 120.400 356.933,120.705 356.095,121.200 355.600 C 121.809 354.991,122.000 354.267,122.000 352.563 C 122.000 350.932,122.217 350.051,122.800 349.309 C 123.276 348.704,123.600 347.686,123.600 346.795 C 123.600 345.952,123.862 345.080,124.200 344.800 C 124.614 344.456,124.800 343.540,124.800 341.840 C 124.800 339.873,124.961 339.240,125.600 338.693 C 126.153 338.219,126.400 337.513,126.400 336.404 C 126.400 334.905,127.357 333.176,128.098 333.336 C 128.262 333.371,131.439 336.415,135.159 340.100 " stroke="none" fill="#fc0404" fill-rule="evenodd"></path></g></svg>